<mxfile host="app.diagrams.net" modified="2022-07-21T18:55:50.186Z" agent="5.0 (X11; Linux x86_64) AppleWebKit/537.36 (KHTML, like Gecko) Chrome/103.0.0.0 Safari/537.36" etag="ucA9qOnEB5ZZ3mZYH3G_" version="19.0.0" type="github">
  <diagram id="kgpKYQtTHZ0yAKxKKP6v" name="Page-1">
    <mxGraphModel dx="1350" dy="805" grid="1" gridSize="10" guides="1" tooltips="1" connect="1" arrows="1" fold="1" page="1" pageScale="1" pageWidth="850" pageHeight="1100" math="0" shadow="0">
      <root>
        <mxCell id="0" />
        <mxCell id="1" parent="0" />
        <mxCell id="3nuBFxr9cyL0pnOWT2aG-1" value="SCP" style="shape=umlLifeline;perimeter=lifelinePerimeter;container=1;collapsible=0;recursiveResize=0;rounded=0;shadow=0;strokeWidth=1;" parent="1" vertex="1">
          <mxGeometry x="144" y="13" width="100" height="300" as="geometry" />
        </mxCell>
        <mxCell id="3nuBFxr9cyL0pnOWT2aG-2" value="" style="points=[];perimeter=orthogonalPerimeter;rounded=0;shadow=0;strokeWidth=1;" parent="3nuBFxr9cyL0pnOWT2aG-1" vertex="1">
          <mxGeometry x="45" y="70" width="10" height="190" as="geometry" />
        </mxCell>
        <mxCell id="3nuBFxr9cyL0pnOWT2aG-3" value="Insert de nova mailling" style="verticalAlign=bottom;startArrow=oval;endArrow=block;startSize=8;shadow=0;strokeWidth=1;" parent="3nuBFxr9cyL0pnOWT2aG-1" target="3nuBFxr9cyL0pnOWT2aG-2" edge="1">
          <mxGeometry x="-1" y="9" relative="1" as="geometry">
            <mxPoint x="-15" y="70" as="sourcePoint" />
            <mxPoint x="-9" y="6" as="offset" />
          </mxGeometry>
        </mxCell>
        <mxCell id="3nuBFxr9cyL0pnOWT2aG-5" value="Integration API" style="shape=umlLifeline;perimeter=lifelinePerimeter;container=1;collapsible=0;recursiveResize=0;rounded=0;shadow=0;strokeWidth=1;" parent="1" vertex="1">
          <mxGeometry x="324" y="13" width="100" height="328" as="geometry" />
        </mxCell>
        <mxCell id="3nuBFxr9cyL0pnOWT2aG-6" value="" style="points=[];perimeter=orthogonalPerimeter;rounded=0;shadow=0;strokeWidth=1;" parent="3nuBFxr9cyL0pnOWT2aG-5" vertex="1">
          <mxGeometry x="45" y="80" width="10" height="110" as="geometry" />
        </mxCell>
        <mxCell id="zpUX4h_SrC3yflTHsjPU-11" value="" style="points=[];perimeter=orthogonalPerimeter;rounded=0;shadow=0;strokeWidth=1;" vertex="1" parent="3nuBFxr9cyL0pnOWT2aG-5">
          <mxGeometry x="46" y="218" width="10" height="110" as="geometry" />
        </mxCell>
        <mxCell id="3nuBFxr9cyL0pnOWT2aG-8" value="Insert de novo pacote" style="verticalAlign=bottom;endArrow=block;entryX=0;entryY=0;shadow=0;strokeWidth=1;" parent="1" source="3nuBFxr9cyL0pnOWT2aG-2" target="3nuBFxr9cyL0pnOWT2aG-6" edge="1">
          <mxGeometry x="0.1882" y="3" relative="1" as="geometry">
            <mxPoint x="299" y="93" as="sourcePoint" />
            <mxPoint as="offset" />
          </mxGeometry>
        </mxCell>
        <mxCell id="zpUX4h_SrC3yflTHsjPU-1" value="Template API" style="shape=umlLifeline;perimeter=lifelinePerimeter;container=1;collapsible=0;recursiveResize=0;rounded=0;shadow=0;strokeWidth=1;" vertex="1" parent="1">
          <mxGeometry x="504" y="13" width="100" height="300" as="geometry" />
        </mxCell>
        <mxCell id="zpUX4h_SrC3yflTHsjPU-2" value="" style="points=[];perimeter=orthogonalPerimeter;rounded=0;shadow=0;strokeWidth=1;" vertex="1" parent="zpUX4h_SrC3yflTHsjPU-1">
          <mxGeometry x="45" y="308" width="10" height="50" as="geometry" />
        </mxCell>
        <mxCell id="zpUX4h_SrC3yflTHsjPU-5" value="Consulta se mailing existe" style="verticalAlign=bottom;endArrow=block;shadow=0;strokeWidth=1;" edge="1" parent="zpUX4h_SrC3yflTHsjPU-1">
          <mxGeometry x="0.5224" relative="1" as="geometry">
            <mxPoint x="-125" y="100.00000000000011" as="sourcePoint" />
            <mxPoint x="210" y="100" as="targetPoint" />
            <mxPoint as="offset" />
          </mxGeometry>
        </mxCell>
        <mxCell id="zpUX4h_SrC3yflTHsjPU-9" value="Retorna se mailing existe" style="verticalAlign=bottom;endArrow=open;dashed=1;endSize=8;exitX=0;exitY=0.95;shadow=0;strokeWidth=1;" edge="1" parent="zpUX4h_SrC3yflTHsjPU-1">
          <mxGeometry relative="1" as="geometry">
            <mxPoint x="-120" y="130" as="targetPoint" />
            <mxPoint x="215" y="129.99999999999977" as="sourcePoint" />
          </mxGeometry>
        </mxCell>
        <mxCell id="zpUX4h_SrC3yflTHsjPU-3" value="Data API" style="shape=umlLifeline;perimeter=lifelinePerimeter;container=1;collapsible=0;recursiveResize=0;rounded=0;shadow=0;strokeWidth=1;" vertex="1" parent="1">
          <mxGeometry x="674" y="13" width="100" height="320" as="geometry" />
        </mxCell>
        <mxCell id="zpUX4h_SrC3yflTHsjPU-4" value="" style="points=[];perimeter=orthogonalPerimeter;rounded=0;shadow=0;strokeWidth=1;" vertex="1" parent="zpUX4h_SrC3yflTHsjPU-3">
          <mxGeometry x="45" y="95" width="10" height="225" as="geometry" />
        </mxCell>
        <mxCell id="zpUX4h_SrC3yflTHsjPU-6" value="Insere a mailing" style="verticalAlign=bottom;endArrow=block;shadow=0;strokeWidth=1;" edge="1" parent="1">
          <mxGeometry x="0.6119" relative="1" as="geometry">
            <mxPoint x="384" y="173.0000000000001" as="sourcePoint" />
            <mxPoint x="719" y="173" as="targetPoint" />
            <mxPoint as="offset" />
          </mxGeometry>
        </mxCell>
        <mxCell id="zpUX4h_SrC3yflTHsjPU-10" value="Retorna o id da mailing" style="verticalAlign=bottom;endArrow=open;dashed=1;endSize=8;exitX=0;exitY=0.95;shadow=0;strokeWidth=1;" edge="1" parent="1">
          <mxGeometry relative="1" as="geometry">
            <mxPoint x="384" y="203" as="targetPoint" />
            <mxPoint x="719.5" y="204.99999999999977" as="sourcePoint" />
          </mxGeometry>
        </mxCell>
        <mxCell id="zpUX4h_SrC3yflTHsjPU-12" value="Inserir pacotes (quebra)" style="verticalAlign=bottom;endArrow=block;shadow=0;strokeWidth=1;" edge="1" parent="1">
          <mxGeometry x="0.5224" relative="1" as="geometry">
            <mxPoint x="384.5" y="260.0000000000001" as="sourcePoint" />
            <mxPoint x="719.5" y="260" as="targetPoint" />
            <mxPoint as="offset" />
          </mxGeometry>
        </mxCell>
      </root>
    </mxGraphModel>
  </diagram>
</mxfile>
